HIERARCHY
ROOT Hips
{
	OFFSET 0.0000 0.0000 0.0000
	CHANNELS 6 Xposition Yposition Zposition Zrotation Xrotation Yrotation
	JOINT Ab
	{
		OFFSET -0.0000 8.0846 -0.0000
		CHANNELS 3 Zrotation Xrotation Yrotation
		JOINT Chest
		{
			OFFSET -0.0000 25.7002 -0.0000
			CHANNELS 3 Zrotation Xrotation Yrotation
			JOINT Neck
			{
				OFFSET -0.0000 25.7002 0.0000
				CHANNELS 3 Zrotation Xrotation Yrotation
				JOINT Head
				{
					OFFSET -0.0000 10.7556 0.0000
					CHANNELS 3 Zrotation Xrotation Yrotation
					End Site
					{
						OFFSET -0.0000 16.6222 0.0000
					}
				}
			}
			JOINT LeftCollar
			{
				OFFSET -0.0000 25.7002 0.0000
				CHANNELS 3 Zrotation Xrotation Yrotation
				JOINT LeftShoulder
				{
					OFFSET 19.5556 -0.0000 0.0000
					CHANNELS 3 Zrotation Xrotation Yrotation
					JOINT LeftElbow
					{
						OFFSET 27.2833 0.0000 0.0000
						CHANNELS 3 Zrotation Xrotation Yrotation
						JOINT LeftWrist
						{
							OFFSET 23.7914 0.0000 0.0000
							CHANNELS 3 Zrotation Xrotation Yrotation
							End Site
							{
								OFFSET 0.0000 -14.6667 0.0000
							}
						}
					}
				}
			}
			JOINT RightCollar
			{
				OFFSET -0.0000 25.7002 0.0000
				CHANNELS 3 Zrotation Xrotation Yrotation
				JOINT RightShoulder
				{
					OFFSET -19.5556 0.0000 0.0000
					CHANNELS 3 Zrotation Xrotation Yrotation
					JOINT RightElbow
					{
						OFFSET -27.2833 0.0000 0.0000
						CHANNELS 3 Zrotation Xrotation Yrotation
						JOINT RightWrist
						{
							OFFSET -23.7914 0.0000 0.0000
							CHANNELS 3 Zrotation Xrotation Yrotation
							End Site
							{
								OFFSET -0.0000 -14.6667 0.0000
							}
						}
					}
				}
			}
		}
	}
	JOINT LeftHip
	{
		OFFSET 11.7333 0.0000 0.0000
		CHANNELS 3 Zrotation Xrotation Yrotation
		JOINT LeftKnee
		{
			OFFSET -0.0000 -39.5330 0.0000
			CHANNELS 3 Zrotation Xrotation Yrotation
			JOINT LeftAnkle
			{
				OFFSET -0.0000 -43.0504 0.0000
				CHANNELS 3 Zrotation Xrotation Yrotation
				End Site
				{
					OFFSET -0.0000 -4.8889 16.6222
				}
			}
		}
	}
	JOINT RightHip
	{
		OFFSET -11.7333 0.0000 0.0000
		CHANNELS 3 Zrotation Xrotation Yrotation
		JOINT RightKnee
		{
			OFFSET -0.0000 -39.5330 0.0000
			CHANNELS 3 Zrotation Xrotation Yrotation
			JOINT RightAnkle
			{
				OFFSET -0.0000 -43.0504 0.0000
				CHANNELS 3 Zrotation Xrotation Yrotation
				End Site
				{
					OFFSET -0.0000 -4.8889 16.6222
				}
			}
		}
	}
}
MOTION
Frames: 17
Frame Time: 0.010000
-3.0807 90.5867 187.7586 2.3333 358.1991 174.6314 3.3082 0.6803 358.4593 356.5651 11.1907 358.8165 3.0495 343.5144 2.6119 0.6750 7.3792 2.1260 339.2094 357.6523 12.7480 302.1500 36.8313 352.4092 21.4387 353.3078 325.8265 82.3376 358.9912 342.7483 24.0381 358.8574 354.6389 51.5029 50.2127 16.4133 336.3402 352.5993 34.3059 274.8149 349.5963 22.6789 3.2275 357.7744 357.9711 359.2471 11.4663 357.1589 354.7233 347.7676 25.6752 0.7675 351.8485 0.0164 358.9869 19.6354 4.3765 359.9765 344.6502 340.0739 
-3.1153 90.5851 187.7245 2.3292 358.2207 174.5826 3.3307 0.7905 358.4753 356.5247 11.1730 358.8374 3.6614 343.6942 2.9897 359.8407 7.0765 2.4896 339.2105 357.6273 12.8375 302.1621 36.9040 352.3880 21.4607 353.3291 325.8960 82.6569 358.8476 342.9652 24.0319 358.8536 354.6928 51.2944 50.3358 16.6324 336.2871 352.5486 34.4873 274.7790 349.4005 22.2976 3.2021 357.7875 358.1511 359.2654 11.5452 356.9709 354.7510 347.6824 25.7251 0.7404 351.8779 0.0758 358.9955 19.6483 4.3864 359.5324 344.6900 339.9639 
-3.1555 90.5833 187.6999 2.3109 358.1786 174.5560 3.3214 0.8435 358.4991 356.5053 11.1572 358.8652 3.6846 343.6661 2.9818 359.7269 7.0774 2.4708 339.2027 357.6344 12.8761 302.1991 36.9212 352.3733 21.5248 353.3165 325.8934 82.3100 358.8391 342.8737 24.0299 358.8771 354.6610 50.8923 50.5759 17.0933 336.3197 352.5311 34.6948 274.6006 349.5330 22.4143 3.1824 357.6609 357.9987 359.1899 11.7527 357.0630 354.8797 347.5571 25.8094 0.6952 351.8330 0.1155 359.0113 19.6790 4.4088 359.5253 344.6724 339.9196 
-3.1929 90.5834 187.6641 2.3005 358.1503 174.5312 3.3171 0.9002 358.5361 356.4840 11.1771 358.9069 3.6618 343.5754 2.9613 359.7331 7.1447 2.4500 339.2043 357.6207 12.8973 302.2467 37.0342 352.3691 21.6060 353.2673 325.8765 82.2758 358.7733 342.9843 24.0262 358.8473 354.6084 50.5217 50.8022 17.5518 336.2159 352.4196 34.8867 274.5336 349.6486 22.1984 3.1569 357.6176 357.9620 359.1585 11.8370 357.0723 354.9454 347.4849 25.8583 0.6657 351.8142 0.1512 359.0116 19.7031 4.4241 359.5688 344.6258 339.9046 
-3.2310 90.5828 187.6371 2.2934 358.1046 174.5058 3.3090 0.9386 358.5553 356.4810 11.1668 358.9266 3.4387 343.5257 2.8182 0.0011 7.2302 2.3169 339.2105 357.6300 12.8606 302.2167 36.9375 352.4439 21.5479 353.3078 325.8559 82.2979 358.6691 342.9080 24.0201 358.8719 354.6042 50.3124 50.9245 17.8201 336.1615 352.3501 35.0837 274.6743 349.5924 22.1661 3.1360 357.5575 357.9588 359.1329 11.9149 357.0497 354.9875 347.4171 25.9267 0.6366 351.7834 0.1749 359.0194 19.6971 4.4127 359.5709 344.6093 339.9154 
-3.2731 90.5811 187.5976 2.2936 358.0868 174.4749 3.2726 0.9193 358.4242 356.7123 11.2321 358.7744 2.8235 343.6712 2.7417 0.5003 7.1300 2.3127 339.0939 357.6211 12.8424 302.0623 36.7157 352.5713 21.5314 353.3326 325.8238 82.2538 358.6468 342.8794 23.8976 358.8967 354.7712 49.8085 51.1466 18.3011 336.1338 352.3567 35.1175 274.5616 349.5354 21.9765 3.1173 357.5498 357.9553 359.1107 11.9533 357.0306 354.9886 347.3387 25.9715 0.6126 351.7880 0.2085 359.0174 19.7034 4.4308 359.6054 344.5695 339.9031 
-3.3139 90.5808 187.5573 2.2907 358.0444 174.4580 3.2428 0.9379 358.4377 356.7699 11.2840 358.7845 3.1126 343.6758 3.0194 0.0217 7.0450 2.5847 339.0644 357.5898 13.0208 302.1300 36.9032 352.4379 21.6823 353.2741 325.8963 82.1274 358.6168 343.1034 23.8630 358.9262 354.8804 49.4334 51.3154 18.7086 336.1171 352.3022 35.3236 274.3378 349.4494 21.9968 3.0962 357.5193 357.9509 359.0916 11.9932 357.0186 355.0620 347.2859 26.0171 0.5863 351.7749 0.2441 359.0260 19.6864 4.4071 359.6344 344.5493 339.9071 
-3.3570 90.5807 187.5208 2.2868 357.9790 174.4288 3.1271 1.1009 358.5758 356.9054 11.0608 358.9081 3.1918 343.7051 2.9788 359.8070 7.0748 2.5317 339.0128 357.5710 13.0101 302.1170 36.9201 352.5662 21.6249 353.3167 325.9155 82.1430 358.5379 343.0622 23.8031 358.9134 354.7648 49.3186 51.6670 18.9668 335.8380 352.1683 35.2011 274.0570 348.5672 22.3526 3.0756 357.4669 357.9455 359.0687 12.0365 356.9988 355.1348 347.1702 25.7980 0.5576 351.7257 0.2680 359.0312 19.6905 4.4156 359.5646 344.5374 339.8927 
-3.4026 90.5804 187.4695 2.2986 357.9388 174.3834 3.1310 1.1961 358.6242 356.9190 10.9781 358.9546 3.1616 343.7368 2.9129 359.8298 7.0481 2.4699 339.0074 357.5804 12.9234 302.0391 36.8344 352.6876 21.5657 353.3286 325.8924 82.1141 358.5240 342.9495 23.8144 358.8857 354.6306 48.9852 51.8771 19.3692 335.6818 352.1000 35.3846 274.1835 348.6243 22.4486 3.0653 357.4573 357.9151 359.0390 12.0581 357.0225 355.1752 347.0862 25.7839 0.5467 351.7302 0.3227 359.0345 19.6658 4.3756 359.5955 344.5140 339.9328 
-3.4514 90.5802 187.4181 2.2954 357.8845 174.3435 3.0886 1.1839 358.6760 357.0163 11.1315 358.9996 3.0662 343.5589 2.9020 359.8765 7.0842 2.4697 339.0268 357.5855 12.9241 301.9835 36.9129 352.6276 21.6556 353.2730 325.8562 82.0189 358.5279 343.0108 23.6953 358.8655 354.5514 48.5301 52.0750 19.9955 335.4815 352.0007 35.5916 274.4227 348.7376 22.5369 3.0409 357.4311 357.8780 359.0122 12.0887 357.0495 355.1971 347.0974 26.1691 0.5195 351.7101 0.3499 359.0273 19.6481 4.4108 359.6944 344.4756 339.9204 
-3.5020 90.5806 187.3623 2.2960 357.8266 174.2975 3.0952 1.2202 358.7068 357.0339 11.1521 359.0304 3.0309 343.4897 2.9043 359.8532 7.1100 2.4756 339.0379 357.5922 12.9885 301.9717 37.0586 352.5542 21.7777 353.2281 325.9261 81.9409 358.4465 343.1246 23.6726 358.8620 354.5010 48.1875 52.2134 20.4242 335.4062 351.9481 35.7732 274.5214 348.6629 22.5936 3.0168 357.4029 357.8339 358.9844 12.1213 357.0679 355.2514 347.0164 26.1708 0.4931 351.6925 0.3680 359.0199 19.6301 4.4253 359.6725 344.4641 339.9298 
-3.5553 90.5823 187.3084 2.2925 357.7503 174.2538 3.1031 1.2625 358.7369 356.9976 11.1137 359.0642 3.1164 343.4294 2.9342 359.7285 7.2167 2.4998 339.0573 357.5974 12.9960 301.9296 36.9393 352.6144 21.7383 353.2441 325.8946 81.9186 358.3748 343.0807 23.6796 358.8525 354.5200 47.9737 52.3748 20.7227 335.2585 351.8542 35.9341 274.5325 348.5165 22.6341 2.9837 357.3345 357.8147 358.9714 12.1928 357.0900 355.2969 346.8802 26.0162 0.4634 351.6566 0.4112 359.0209 19.5909 4.2513 359.7948 344.4372 340.1094 
-3.6160 90.5822 187.2550 2.2734 357.6434 174.2249 3.1195 1.2850 358.7458 356.9408 11.0474 359.0781 3.1931 343.4269 2.9690 359.6336 7.2799 2.5298 339.0957 357.6018 12.9572 301.8008 36.5794 352.8123 21.6248 353.2726 325.6966 81.8344 358.3924 342.8813 23.6932 358.8440 354.5621 47.7924 52.5100 20.9447 335.1850 351.7952 36.1638 273.9421 348.7704 22.5300 2.9175 357.1787 357.7894 358.9757 12.3601 357.1875 355.2961 346.8130 26.2170 0.4108 351.5832 0.4026 359.0149 19.5752 4.2401 359.8237 344.4097 340.1372 
-3.6801 90.5807 187.1853 2.2595 357.5358 174.1740 3.1571 1.3152 358.7560 356.8884 11.0001 359.0932 3.1246 343.3941 2.9898 359.6960 7.3179 2.5580 339.1110 357.6082 12.9617 301.7037 36.2780 352.9621 21.4865 353.3014 325.4825 81.7905 358.4527 342.7207 23.7096 358.8670 354.5605 47.3242 52.6128 21.4347 335.2282 351.7596 36.4768 274.0759 348.7601 22.6039 2.8682 357.1042 357.7735 358.9646 12.4028 357.2135 355.3421 346.7340 26.2452 0.3682 351.5254 0.4147 358.9896 19.5591 4.3873 0.1704 344.3110 340.1220 
-3.7554 90.5774 187.1256 2.2401 357.4928 174.1225 3.1512 1.3787 358.7968 356.8781 10.9874 359.1362 3.0868 343.3489 2.9873 359.6991 7.3382 2.5573 339.1065 357.5946 12.9955 301.6767 36.2202 353.0068 21.4751 353.2841 325.4186 81.7085 358.4135 342.6781 23.6973 358.8557 354.5581 47.0418 52.7243 21.7738 335.0902 351.6468 36.6761 274.3020 348.7630 22.5609 2.7951 357.0884 357.7607 358.9746 12.4276 357.2338 355.3912 346.6069 26.0727 0.2829 351.5226 0.3993 359.0038 19.5377 4.4362 0.0934 344.2976 340.1041 
-3.8386 90.5719 187.0544 2.2104 357.4174 174.0767 3.1670 1.4331 358.8221 356.8301 10.9425 359.1670 3.0481 343.3146 2.9784 359.7067 7.3855 2.5519 339.1089 357.5902 13.0413 301.6638 36.3178 353.0540 21.5642 353.2366 325.4262 81.5840 358.3053 342.7425 23.7030 358.8363 354.4466 46.4037 53.0332 22.5368 334.9669 351.5785 36.6559 274.4217 348.5614 22.3581 2.7031 357.0473 357.7414 358.9831 12.4623 357.2486 355.4577 346.5210 25.9943 0.1931 351.4912 0.3556 359.0072 19.5240 4.5387 0.0410 344.2552 340.0609 
-3.9133 90.5690 186.9814 2.2000 357.3218 174.0503 3.2011 1.4677 358.8299 356.7724 10.9046 359.1802 3.0414 343.2907 2.9965 359.7237 7.3994 2.5704 339.1283 357.5759 13.0939 301.6123 36.3476 353.1238 21.6624 353.1806 325.3887 81.4575 358.2373 342.7832 23.7083 358.8295 354.4332 46.0668 53.1671 22.9703 334.9059 351.5289 36.8074 274.3400 348.4851 22.2523 2.6481 356.9896 357.7027 358.9651 12.5011 357.2567 355.4441 346.4168 26.0327 0.1402 351.4514 0.3417 359.0070 19.4948 4.5490 0.1284 344.1926 340.1037 
